{
	"asset":{
		"generator":"Khronos glTF Blender I/O v4.2.70",
		"version":"2.0"
	},
	"extensionsUsed":[
		"KHR_materials_specular"
	],
	"scene":0,
	"scenes":[
		{
			"name":"Scene",
			"nodes":[
				5
			]
		}
	],
	"nodes":[
		{
			"mesh":0,
			"name":"Object_2"
		},
		{
			"mesh":1,
			"name":"Object_3"
		},
		{
			"mesh":2,
			"name":"Object_4"
		},
		{
			"mesh":3,
			"name":"Object_5"
		},
		{
			"children":[
				0,
				1,
				2,
				3
			],
			"name":"oversized-tshirt.obj.cleaner.materialmerger.gles"
		},
		{
			"children":[
				4
			],
			"name":"Sketchfab_model",
			"rotation":[
				-0.70710688829422,
				0,
				0,
				0.7071066498756409
			]
		}
	],
	"materials":[
		{
			"doubleSided":true,
			"extensions":{
				"KHR_materials_specular":{
					"specularFactor":0
				}
			},
			"name":"Material.001",
			"normalTexture":{
				"index":0,
				"scale":0.6628591418266296
			},
			"pbrMetallicRoughness":{
				"baseColorTexture":{
					"index":1
				},
				"metallicRoughnessTexture":{
					"index":2
				}
			}
		}
	],
	"meshes":[
		{
			"name":"Object_0",
			"primitives":[
				{
					"attributes":{
						"POSITION":0,
						"NORMAL":1,
						"TEXCOORD_0":2
					},
					"indices":3,
					"material":0
				}
			]
		},
		{
			"name":"Object_1",
			"primitives":[
				{
					"attributes":{
						"POSITION":4,
						"NORMAL":5,
						"TEXCOORD_0":6
					},
					"indices":7,
					"material":0
				}
			]
		},
		{
			"name":"Object_2",
			"primitives":[
				{
					"attributes":{
						"POSITION":8,
						"NORMAL":9,
						"TEXCOORD_0":10
					},
					"indices":11,
					"material":0
				}
			]
		},
		{
			"name":"Object_3",
			"primitives":[
				{
					"attributes":{
						"POSITION":12,
						"NORMAL":13,
						"TEXCOORD_0":14
					},
					"indices":15,
					"material":0
				}
			]
		}
	],
	"textures":[
		{
			"sampler":0,
			"source":0
		},
		{
			"sampler":0,
			"source":1
		},
		{
			"sampler":0,
			"source":2
		}
	],
	"images":[
		{
			"mimeType":"image/png",
			"name":"Material.001_normal",
			"uri":"Material_001_normal.png"
		},
		{
			"mimeType":"image/png",
			"name":"Material.001_baseColor",
			"uri":"Material_001_baseColor.png"
		},
		{
			"mimeType":"image/png",
			"name":"Material.001_metallicRoughness",
			"uri":"Material_001_metallicRoughness.png"
		}
	],
	"accessors":[
		{
			"bufferView":0,
			"componentType":5126,
			"count":65535,
			"max":[
				0.324537992477417,
				0.1630791574716568,
				0.07831621170043945
			],
			"min":[
				-0.31248798966407776,
				-0.15813283622264862,
				-0.34747380018234253
			],
			"type":"VEC3"
		},
		{
			"bufferView":1,
			"componentType":5126,
			"count":65535,
			"type":"VEC3"
		},
		{
			"bufferView":2,
			"componentType":5126,
			"count":65535,
			"type":"VEC2"
		},
		{
			"bufferView":3,
			"componentType":5123,
			"count":353217,
			"type":"SCALAR"
		},
		{
			"bufferView":4,
			"componentType":5126,
			"count":65550,
			"max":[
				0.324537992477417,
				0.16117216646671295,
				0.36333322525024414
			],
			"min":[
				-0.24786800146102905,
				-0.15541084110736847,
				-0.336067795753479
			],
			"type":"VEC3"
		},
		{
			"bufferView":5,
			"componentType":5126,
			"count":65550,
			"type":"VEC3"
		},
		{
			"bufferView":6,
			"componentType":5126,
			"count":65550,
			"type":"VEC2"
		},
		{
			"bufferView":7,
			"componentType":5125,
			"count":357243,
			"type":"SCALAR"
		},
		{
			"bufferView":8,
			"componentType":5126,
			"count":65566,
			"max":[
				0.2442460060119629,
				0.16117216646671295,
				0.3569462299346924
			],
			"min":[
				-0.30834001302719116,
				-0.15718883275985718,
				-0.3353397846221924
			],
			"type":"VEC3"
		},
		{
			"bufferView":9,
			"componentType":5126,
			"count":65566,
			"type":"VEC3"
		},
		{
			"bufferView":10,
			"componentType":5126,
			"count":65566,
			"type":"VEC2"
		},
		{
			"bufferView":11,
			"componentType":5125,
			"count":346632,
			"type":"SCALAR"
		},
		{
			"bufferView":12,
			"componentType":5126,
			"count":41319,
			"max":[
				0.23290599882602692,
				0.16106216609477997,
				0.3564952611923218
			],
			"min":[
				-0.23378999531269073,
				-0.009379829280078411,
				-0.33504176139831543
			],
			"type":"VEC3"
		},
		{
			"bufferView":13,
			"componentType":5126,
			"count":41319,
			"type":"VEC3"
		},
		{
			"bufferView":14,
			"componentType":5126,
			"count":41319,
			"type":"VEC2"
		},
		{
			"bufferView":15,
			"componentType":5123,
			"count":221958,
			"type":"SCALAR"
		}
	],
	"bufferViews":[
		{
			"buffer":0,
			"byteLength":786420,
			"byteOffset":0,
			"target":34962
		},
		{
			"buffer":0,
			"byteLength":786420,
			"byteOffset":786420,
			"target":34962
		},
		{
			"buffer":0,
			"byteLength":524280,
			"byteOffset":1572840,
			"target":34962
		},
		{
			"buffer":0,
			"byteLength":706434,
			"byteOffset":2097120,
			"target":34963
		},
		{
			"buffer":0,
			"byteLength":786600,
			"byteOffset":2803556,
			"target":34962
		},
		{
			"buffer":0,
			"byteLength":786600,
			"byteOffset":3590156,
			"target":34962
		},
		{
			"buffer":0,
			"byteLength":524400,
			"byteOffset":4376756,
			"target":34962
		},
		{
			"buffer":0,
			"byteLength":1428972,
			"byteOffset":4901156,
			"target":34963
		},
		{
			"buffer":0,
			"byteLength":786792,
			"byteOffset":6330128,
			"target":34962
		},
		{
			"buffer":0,
			"byteLength":786792,
			"byteOffset":7116920,
			"target":34962
		},
		{
			"buffer":0,
			"byteLength":524528,
			"byteOffset":7903712,
			"target":34962
		},
		{
			"buffer":0,
			"byteLength":1386528,
			"byteOffset":8428240,
			"target":34963
		},
		{
			"buffer":0,
			"byteLength":495828,
			"byteOffset":9814768,
			"target":34962
		},
		{
			"buffer":0,
			"byteLength":495828,
			"byteOffset":10310596,
			"target":34962
		},
		{
			"buffer":0,
			"byteLength":330552,
			"byteOffset":10806424,
			"target":34962
		},
		{
			"buffer":0,
			"byteLength":443916,
			"byteOffset":11136976,
			"target":34963
		}
	],
	"samplers":[
		{
			"magFilter":9729,
			"minFilter":9987
		}
	],
	"buffers":[
		{
			"byteLength":11580892,
			"uri":"tshirt.bin"
		}
	]
}
